HIERARCHY
ROOT Hips
{
  OFFSET 0 34.322 0
  CHANNELS 6 Xposition Yposition Zposition Zrotation Xrotation Yrotation
  JOINT LeftHip
  {
    OFFSET 4.587 -1.043 0
    CHANNELS 3 Zrotation Xrotation Yrotation
    JOINT LeftKnee
    {
      OFFSET 3.09 -15.571 0
      CHANNELS 3 Zrotation Xrotation Yrotation
      JOINT LeftAnkle
      {
        OFFSET 2.179 -16.111 -2.139
        CHANNELS 3 Zrotation Xrotation Yrotation
        JOINT LeftAnkle_End
        {
          OFFSET 0 -0.867 1.597
          CHANNELS 3 Zrotation Xrotation Yrotation
          End Site
          {
            OFFSET 1 0 0
          }
        }
      }
    }
  }
  JOINT RightHip
  {
    OFFSET -4.587 -1.043 0
    CHANNELS 3 Zrotation Xrotation Yrotation
    JOINT RightKnee
    {
      OFFSET -3.09 -15.571 0
      CHANNELS 3 Zrotation Xrotation Yrotation
      JOINT RightAnkle
      {
        OFFSET -2.719 -16.111 -2.139
        CHANNELS 3 Zrotation Xrotation Yrotation
        JOINT RightAnkle_End
        {
          OFFSET 0 -0.867 1.597
          CHANNELS 3 Zrotation Xrotation Yrotation
          End Site
          {
            OFFSET 1 0 0
          }
        }
      }
    }
  }
  JOINT Chest
  {
    OFFSET 0 12.21 -1.587
    CHANNELS 3 Zrotation Xrotation Yrotation
    JOINT Chest2
    {
      OFFSET 0 6.57 0
      CHANNELS 3 Zrotation Xrotation Yrotation
      JOINT LeftCollar
      {
        OFFSET 2.914 4.941 1.76
        CHANNELS 3 Zrotation Xrotation Yrotation
        JOINT LeftShoulder
        {
          OFFSET 5.81 0 0
          CHANNELS 3 Zrotation Xrotation Yrotation
          JOINT LeftElbow
          {
            OFFSET 12.08 -2.766 0
            CHANNELS 3 Zrotation Xrotation Yrotation
            JOINT LeftWrist
            {
              OFFSET 8.622 -0.562 -1.223
              CHANNELS 3 Zrotation Xrotation Yrotation
              JOINT LeftWrist_End
              {
                OFFSET 7.37 0 0
                CHANNELS 3 Zrotation Xrotation Yrotation
                End Site
                {
                  OFFSET 1 0 0
                }
              }
            }
          }
        }
      }
      JOINT RightCollar
      {
        OFFSET -2.914 4.941 1.76
        CHANNELS 3 Zrotation Xrotation Yrotation
        JOINT RightShoulder
        {
          OFFSET -5.81 0 0
          CHANNELS 3 Zrotation Xrotation Yrotation
          JOINT RightElbow
          {
            OFFSET -12.08 -2.766 0
            CHANNELS 3 Zrotation Xrotation Yrotation
            JOINT RightWrist
            {
              OFFSET -8.622 -0.562 -1.223
              CHANNELS 3 Zrotation Xrotation Yrotation
              JOINT RightWrist_End
              {
                OFFSET -7.14 0 0
                CHANNELS 3 Zrotation Xrotation Yrotation
                End Site
                {
                  OFFSET 1 0 0
                }
              }
            }
          }
        }
      }
      JOINT Neck
      {
        OFFSET 0 9.675 1.799
        CHANNELS 3 Zrotation Xrotation Yrotation
        JOINT Head
        {
          OFFSET 0 5.19 0
          CHANNELS 3 Zrotation Xrotation Yrotation
          JOINT Head_End
          {
            OFFSET 0 4.14001 0
            CHANNELS 3 Zrotation Xrotation Yrotation
            End Site
            {
              OFFSET 1 0 0
            }
          }
        }
      }
    }
  }
}
MOTION
Frames: 13
Frame Time: 0.033333
19.8598 80.309 -11.521 -0.661911 0.799904 171.213 -1.85002 2.52617 10.7515 3.17067 -1.01583e-010 -10.2854 -1.58501 -1.94847 -0.0287346 0 0 0 -0.0555542 2.6936 -11.4833 -0.562183 1.22223e-006 11.8361 0.284375 -1.65435 -0.00579677 0 0 0 -1.25693 6.24787 -0.51793 3.27727 -16.0419 -1.36162 14.6579 0.0301162 -3.60178 -5.21488 6.12318 -3.03665 2.47876 0.000451064 -6.17142e-006 -0.509607 -8.47663 0.248473 0 0 0 -15.7988 1.60936 -7.32667 1.93902 -8.80292 5.13737 -1.30308 7.39538e-009 8.53796e-007 0.267783 -4.03835 0.26339 0 0 0 0.258752 -0.0812672 0.831621 12.5445 1.71161 -2.09692 0 0 0 
19.8771 80.2868 -11.5326 -0.700186 0.756134 171.114 -1.84667 2.51303 10.794 3.13528 -1.01593e-010 -10.2526 -1.58653 -1.95993 -0.0287348 0 0 0 -0.0627105 2.65564 -11.4946 -0.56617 1.2219e-006 11.9114 0.31303 -1.66464 -0.0057968 0 0 0 -1.29175 6.15499 -0.450865 3.47648 -15.6579 -1.30103 14.4269 0.0330917 -3.62714 -5.39613 6.06833 -2.95956 2.27028 0.000451064 -6.17142e-006 -0.527485 -7.40878 0.0488122 0 0 0 -15.6207 1.62543 -7.46368 1.75456 -9.10966 5.12076 -1.08476 7.39538e-009 8.53796e-007 0.274961 -4.00089 0.215719 0 0 0 0.444407 -0.387448 0.74024 12.1183 2.50324 -2.11188 0 0 0 
19.8963 80.2634 -11.5423 -0.733453 0.713525 171.075 -1.85133 2.48653 10.8035 3.14288 -1.0161e-010 -10.2001 -1.61782 -1.9947 -0.0287354 0 0 0 -0.0675648 2.62944 -11.5044 -0.548075 1.22162e-006 11.9719 0.3077 -1.70198 -0.00579691 0 0 0 -1.26091 6.11532 -0.432267 3.65621 -15.3771 -1.3203 14.09 0.0510788 -3.5963 -5.66388 5.75849 -2.90408 2.21776 0.000451064 -6.17142e-006 -0.622158 -6.12458 0.0648352 0 0 0 -15.5519 1.63164 -7.57744 1.70026 -9.05276 5.1085 -1.08944 7.39538e-009 8.53796e-007 0.514954 -4.22062 0.270141 0 0 0 0.176733 -0.198638 0.899154 12.6265 2.16479 -2.12306 0 0 0 
19.9117 80.244 -11.5463 -0.744451 0.672618 171.068 -1.84807 2.4524 10.7892 3.17126 -1.0162e-010 -10.169 -1.66869 -2.03262 -0.0287361 0 0 0 -0.0664104 2.60368 -11.5186 -0.513509 1.2215e-006 11.9981 0.283854 -1.71891 -0.00579696 0 0 0 -1.28245 5.92855 -0.426017 3.72059 -14.9555 -1.37071 13.9025 0.0610117 -3.56893 -5.77209 6.21635 -2.86295 2.15263 0.000451064 -6.17142e-006 -0.492901 -6.60939 0.109456 0 0 0 -15.4656 1.61251 -7.66143 1.70275 -8.93741 5.03164 -1.03297 7.39538e-009 8.53796e-007 0.807609 -4.27419 0.336366 0 0 0 0.104664 -0.0950794 1.01725 12.765 1.78309 -2.0221 0 0 0 
19.9226 80.2364 -11.5485 -0.741493 0.675092 171.064 -1.84621 2.45931 10.774 3.20465 -1.01627e-010 -10.1474 -1.71851 -2.05361 -0.0287364 0 0 0 -0.0716323 2.61759 -11.5378 -0.472696 1.22139e-006 12.0232 0.250907 -1.7254 -0.00579698 0 0 0 -1.28408 5.74693 -0.406646 3.75299 -14.6835 -1.38627 13.8159 0.055597 -3.61337 -5.84075 6.8367 -2.81488 2.14085 0.000451064 -6.17142e-006 -0.377328 -7.6689 0.175207 0 0 0 -15.4818 1.61231 -7.74748 1.6792 -8.87719 4.9856 -0.996207 7.39538e-009 8.53796e-007 1.081 -4.2259 0.282693 0 0 0 0.384931 -0.0660454 0.970425 12.2308 1.43005 -1.821 0 0 0 
19.9304 80.2432 -11.55 -0.739232 0.721261 171.058 -1.85331 2.50865 10.7599 3.23334 -1.01632e-010 -10.1292 -1.71704 -2.04174 -0.0287362 0 0 0 -0.0799514 2.66864 -11.5458 -0.449235 1.2213e-006 12.0439 0.231512 -1.7372 -0.00579701 0 0 0 -1.17974 5.71441 -0.396097 3.80458 -14.777 -1.36947 13.7562 0.0419179 -3.70849 -6.01084 6.82732 -2.76349 2.27117 0.000451064 -6.17142e-006 -0.494391 -7.61143 0.27687 0 0 0 -15.6855 1.65481 -7.82339 1.61866 -8.90728 5.04817 -1.11499 7.39538e-009 8.53796e-007 1.20768 -4.28904 0.0973765 0 0 0 0.786923 -0.0483721 0.812533 11.4669 0.947894 -1.6279 0 0 0 
19.9339 80.2565 -11.541 -0.739638 0.717024 171.073 -1.85117 2.4976 10.7148 3.24327 -1.01623e-010 -10.1599 -1.60441 -1.99213 -0.0287353 0 0 0 -0.0603937 2.65011 -11.5176 -0.471853 1.22162e-006 11.9718 0.268182 -1.71926 -0.00579696 0 0 0 -1.05869 5.62119 -0.461837 3.71165 -14.8303 -1.42316 13.8987 0.0308707 -3.71017 -6.07684 6.78393 -2.75788 2.40926 0.000451064 -6.17142e-006 -0.499333 -7.2653 0.264311 0 0 0 -15.8583 1.67752 -7.78456 1.60198 -9.13701 5.10733 -1.21132 7.39538e-009 8.53796e-007 0.878658 -4.36346 -0.0231146 0 0 0 1.03164 -0.488357 0.683368 10.9434 0.919126 -1.56236 0 0 0 
19.9356 80.2793 -11.5311 -0.783923 0.74784 171.047 -1.8738 2.50015 10.7386 3.19644 -1.01647e-010 -10.0831 -1.69479 -1.99503 -0.0287354 0 0 0 -0.145369 2.66039 -11.5741 -0.389771 1.22128e-006 12.0476 0.254928 -1.6753 -0.00579683 0 0 0 -0.896477 5.66085 -0.505022 3.56224 -15.238 -1.43527 13.9183 0.0226583 -3.74995 -5.98731 6.82057 -2.75967 2.46027 0.000451064 -6.17142e-006 -0.503933 -7.1575 0.130817 0 0 0 -16.0431 1.70923 -7.71929 1.48599 -9.10676 5.17306 -1.16154 7.39538e-009 8.53796e-007 0.371315 -4.18369 -0.0811368 0 0 0 0.870439 -0.818412 0.781369 11.0727 0.844792 -1.53983 0 0 0 
19.9393 80.2994 -11.5277 -0.787331 0.783139 171.025 -1.86886 2.52673 10.7447 3.18546 -1.01663e-010 -10.0333 -1.78704 -1.94885 -0.0287346 0 0 0 -0.149958 2.68732 -11.5732 -0.393158 1.22131e-006 12.0413 0.277134 -1.67023 -0.00579681 0 0 0 -0.9174 5.67511 -0.527475 3.41139 -15.5162 -1.46122 14.1321 0.0132852 -3.78459 -5.81863 6.96625 -2.8192 2.60254 0.000451064 -6.17142e-006 -0.556574 -7.68985 0.332513 0 0 0 -16.1029 1.71921 -7.69326 1.60099 -9.35761 5.23106 -1.34454 7.39538e-009 8.53796e-007 0.573056 -4.307 0.183332 0 0 0 0.679285 -0.765795 0.987076 11.3298 0.443336 -1.41462 0 0 0 
19.9468 80.3107 -11.5262 -0.792482 0.794561 170.976 -1.86694 2.53894 10.7356 3.18745 -1.0168e-010 -9.97884 -1.85236 -1.92261 -0.0287342 0 0 0 -0.11603 2.68721 -11.5176 -0.458363 1.22135e-006 12.0323 0.279835 -1.68952 -0.00579687 0 0 0 -0.97099 5.6799 -0.548562 3.39576 -15.6701 -1.47349 14.2548 0.013097 -3.74865 -5.68986 6.8559 -2.87453 2.62322 0.000451064 -6.17142e-006 -0.373958 -7.66227 0.339092 0 0 0 -16.1257 1.72035 -7.64644 1.69007 -9.53129 5.27375 -1.49173 7.39538e-009 8.53796e-007 0.425433 -4.56595 0.2055 0 0 0 0.457323 -0.751979 1.16221 11.6482 0.355677 -1.37201 0 0 0 
19.9574 80.311 -11.5249 -0.806215 0.786513 170.911 -1.86852 2.53576 10.7245 3.19227 -1.01698e-010 -9.9194 -1.89327 -1.93702 -0.0287344 0 0 0 -0.0925397 2.6663 -11.4767 -0.504148 1.22126e-006 12.0514 0.284361 -1.69238 -0.00579688 0 0 0 -1.05037 5.69245 -0.555496 3.47992 -15.7685 -1.46784 14.2774 0.0215391 -3.6884 -5.65973 6.6083 -2.91192 2.62356 0.000451064 -6.17142e-006 -0.207127 -7.43113 0.215458 0 0 0 -16.0893 1.71392 -7.62612 1.78328 -9.39469 5.29334 -1.63714 7.39538e-009 8.53796e-007 0.190963 -4.94054 0.17031 0 0 0 0.458314 -0.948793 1.1915 11.7282 0.953008 -1.42158 0 0 0 
19.9701 80.301 -11.5271 -0.807916 0.784278 170.84 -1.85113 2.54865 10.7428 3.1877 -1.01711e-010 -9.87721 -1.88756 -1.97097 -0.028735 0 0 0 -0.0846258 2.66217 -11.4874 -0.49445 1.22099e-006 12.1114 0.296807 -1.66995 -0.00579681 0 0 0 -1.18025 5.70953 -0.524638 3.61213 -15.8247 -1.44082 14.2705 0.02521 -3.68562 -5.78681 6.45646 -2.91401 2.79675 0.000451064 -6.17142e-006 -0.402869 -7.64716 0.169723 0 0 0 -15.9307 1.704 -7.69394 1.90646 -9.0887 5.28786 -1.81484 7.39538e-009 8.53796e-007 0.372674 -5.32366 0.398196 0 0 0 0.842243 -1.06833 1.09812 11.3752 1.87163 -1.40992 0 0 0 
19.9854 80.2821 -11.5392 -0.782961 0.810752 170.746 -1.79837 2.61218 10.8362 3.14469 -1.01714e-010 -9.8676 -1.78357 -1.99959 -0.0287355 0 0 0 -0.0435666 2.70498 -11.4819 -0.50295 1.22038e-006 12.2449 0.231483 -1.68094 -0.00579684 0 0 0 -1.26891 5.70841 -0.459472 3.8618 -15.7458 -1.37363 14.1282 0.0192016 -3.75292 -6.13982 6.32694 -2.8159 3.09841 0.000451064 -6.17142e-006 -0.829129 -7.77727 0.0386609 0 0 0 -15.662 1.70659 -7.80607 1.79456 -9.10913 5.25764 -1.7311 7.39538e-009 8.53796e-007 0.435777 -5.28713 0.617007 0 0 0 1.31222 -0.527801 1.10004 10.8735 2.0958 -1.16655 0 0 0 
